# MagicaVoxel @ Ephtracy

# group
o 

# material
mtllib rose.mtl
usemtl palette

# normals
vn -1 0 0
vn 1 0 0
vn 0 0 1
vn 0 0 -1
vn 0 -1 0
vn 0 1 0

# texcoords
vt 0.794922 0.5
vt 0.841797 0.5
vt 0.845703 0.5
vt 0.849609 0.5
vt 0.857422 0.5
vt 0.865234 0.5
vt 0.908203 0.5

# verts
v -2 0.8 1.9
v -2 0.8 1.8
v -2 0.8 1.7
v -2 0.8 1.6
v -2 0.9 1.9
v -2 0.9 1.8
v -2 0.9 1.7
v -2 0.9 1.6
v -1.9 0.7 1.9
v -1.9 0.7 1.8
v -1.9 0.7 1.7
v -1.9 0.7 1.6
v -1.9 0.8 2
v -1.9 0.8 1.9
v -1.9 0.8 1.8
v -1.9 0.8 1.7
v -1.9 0.8 1.6
v -1.9 0.8 1.5
v -1.9 0.9 2
v -1.9 0.9 1.9
v -1.9 0.9 1.8
v -1.9 0.9 1.7
v -1.9 0.9 1.6
v -1.9 0.9 1.5
v -1.9 1 1.9
v -1.9 1 1.8
v -1.9 1 1.7
v -1.9 1 1.6
v -1.8 0 1.8
v -1.8 0 1.7
v -1.8 0.4 1.9
v -1.8 0.4 1.8
v -1.8 0.5 2
v -1.8 0.5 1.9
v -1.8 0.5 1.8
v -1.8 0.6 2
v -1.8 0.6 1.9
v -1.8 0.6 1.8
v -1.8 0.6 1.7
v -1.8 0.7 1.8
v -1.8 0.7 1.7
v -1.7 0.9 1.8
v -1.7 0.9 1.7
v -1.7 1 1.8
v -1.7 1 1.7
v -1.6 0.3 1.8
v -1.6 0.3 1.7
v -1.6 0.4 1.8
v -1.6 0.4 1.7
v -1.8 0.9 1.8
v -1.8 0.9 1.7
v -1.8 1 1.8
v -1.8 1 1.7
v -1.7 0 1.8
v -1.7 0 1.7
v -1.7 0.2 1.8
v -1.7 0.2 1.7
v -1.7 0.3 1.8
v -1.7 0.3 1.7
v -1.7 0.4 1.9
v -1.7 0.4 1.8
v -1.7 0.5 2
v -1.7 0.5 1.9
v -1.7 0.5 1.8
v -1.7 0.6 2
v -1.7 0.6 1.9
v -1.7 0.6 1.8
v -1.7 0.6 1.7
v -1.7 0.7 1.8
v -1.7 0.7 1.7
v -1.6 0.2 1.8
v -1.6 0.2 1.7
v -1.6 0.3 1.8
v -1.6 0.3 1.7
v -1.6 0.7 1.9
v -1.6 0.7 1.8
v -1.6 0.7 1.7
v -1.6 0.7 1.6
v -1.6 0.8 2
v -1.6 0.8 1.9
v -1.6 0.8 1.8
v -1.6 0.8 1.7
v -1.6 0.8 1.6
v -1.6 0.8 1.5
v -1.6 0.9 2
v -1.6 0.9 1.9
v -1.6 0.9 1.8
v -1.6 0.9 1.7
v -1.6 0.9 1.6
v -1.6 0.9 1.5
v -1.6 1 1.9
v -1.6 1 1.8
v -1.6 1 1.7
v -1.6 1 1.6
v -1.5 0.3 1.8
v -1.5 0.3 1.7
v -1.5 0.4 1.8
v -1.5 0.4 1.7
v -1.5 0.8 1.9
v -1.5 0.8 1.8
v -1.5 0.8 1.7
v -1.5 0.8 1.6
v -1.5 0.9 1.9
v -1.5 0.9 1.8
v -1.5 0.9 1.7
v -1.5 0.9 1.6
v -1.9 0.8 2
v -1.9 0.9 2
v -1.8 0.5 2
v -1.8 0.6 2
v -1.8 0.8 2
v -1.8 0.9 2
v -1.7 0.5 2
v -1.7 0.6 2
v -1.7 0.8 2
v -1.7 0.9 2
v -1.6 0.8 2
v -1.6 0.9 2
v -2 0.8 1.9
v -2 0.9 1.9
v -1.9 0.7 1.9
v -1.9 0.8 1.9
v -1.9 0.9 1.9
v -1.9 1 1.9
v -1.8 0.4 1.9
v -1.8 0.5 1.9
v -1.8 0.7 1.9
v -1.8 0.8 1.9
v -1.8 0.9 1.9
v -1.8 1 1.9
v -1.7 0.4 1.9
v -1.7 0.5 1.9
v -1.7 0.7 1.9
v -1.7 0.8 1.9
v -1.7 0.9 1.9
v -1.7 1 1.9
v -1.6 0.7 1.9
v -1.6 0.8 1.9
v -1.6 0.9 1.9
v -1.6 1 1.9
v -1.5 0.8 1.9
v -1.5 0.9 1.9
v -1.8 0 1.8
v -1.8 0.4 1.8
v -1.8 0.5 1.8
v -1.8 0.6 1.8
v -1.8 0.7 1.8
v -1.7 0 1.8
v -1.7 0.2 1.8
v -1.7 0.3 1.8
v -1.7 0.4 1.8
v -1.7 0.5 1.8
v -1.7 0.6 1.8
v -1.7 0.7 1.8
v -1.6 0.2 1.8
v -1.6 0.3 1.8
v -1.6 0.4 1.8
v -1.5 0.3 1.8
v -1.5 0.4 1.8
v -1.8 0.9 1.7
v -1.8 1 1.7
v -1.7 0.9 1.7
v -1.7 1 1.7
v -1.8 0.5 1.9
v -1.8 0.6 1.9
v -1.7 0.5 1.9
v -1.7 0.6 1.9
v -1.8 0.9 1.8
v -1.8 1 1.8
v -1.7 0.9 1.8
v -1.7 1 1.8
v -1.8 0 1.7
v -1.8 0.6 1.7
v -1.8 0.7 1.7
v -1.7 0 1.7
v -1.7 0.2 1.7
v -1.7 0.3 1.7
v -1.7 0.6 1.7
v -1.7 0.7 1.7
v -1.6 0.2 1.7
v -1.6 0.3 1.7
v -1.6 0.4 1.7
v -1.5 0.3 1.7
v -1.5 0.4 1.7
v -2 0.8 1.6
v -2 0.9 1.6
v -1.9 0.7 1.6
v -1.9 0.8 1.6
v -1.9 0.9 1.6
v -1.9 1 1.6
v -1.8 0.7 1.6
v -1.8 0.8 1.6
v -1.8 0.9 1.6
v -1.8 1 1.6
v -1.7 0.7 1.6
v -1.7 0.8 1.6
v -1.7 0.9 1.6
v -1.7 1 1.6
v -1.6 0.7 1.6
v -1.6 0.8 1.6
v -1.6 0.9 1.6
v -1.6 1 1.6
v -1.5 0.8 1.6
v -1.5 0.9 1.6
v -1.9 0.8 1.5
v -1.9 0.9 1.5
v -1.8 0.8 1.5
v -1.8 0.9 1.5
v -1.7 0.8 1.5
v -1.7 0.9 1.5
v -1.6 0.8 1.5
v -1.6 0.9 1.5
v -1.8 0 1.8
v -1.7 0 1.8
v -1.8 0 1.7
v -1.7 0 1.7
v -1.7 0.2 1.8
v -1.6 0.2 1.8
v -1.7 0.2 1.7
v -1.6 0.2 1.7
v -1.6 0.3 1.8
v -1.5 0.3 1.8
v -1.6 0.3 1.7
v -1.5 0.3 1.7
v -1.8 0.4 1.9
v -1.7 0.4 1.9
v -1.8 0.4 1.8
v -1.7 0.4 1.8
v -1.8 0.5 2
v -1.7 0.5 2
v -1.8 0.5 1.9
v -1.7 0.5 1.9
v -1.9 0.7 1.9
v -1.8 0.7 1.9
v -1.7 0.7 1.9
v -1.6 0.7 1.9
v -1.9 0.7 1.8
v -1.8 0.7 1.8
v -1.7 0.7 1.8
v -1.6 0.7 1.8
v -1.9 0.7 1.7
v -1.8 0.7 1.7
v -1.7 0.7 1.7
v -1.6 0.7 1.7
v -1.9 0.7 1.6
v -1.8 0.7 1.6
v -1.7 0.7 1.6
v -1.6 0.7 1.6
v -1.9 0.8 2
v -1.8 0.8 2
v -1.7 0.8 2
v -1.6 0.8 2
v -2 0.8 1.9
v -1.9 0.8 1.9
v -1.8 0.8 1.9
v -1.7 0.8 1.9
v -1.6 0.8 1.9
v -1.5 0.8 1.9
v -2 0.8 1.8
v -1.9 0.8 1.8
v -1.6 0.8 1.8
v -1.5 0.8 1.8
v -2 0.8 1.7
v -1.9 0.8 1.7
v -1.6 0.8 1.7
v -1.5 0.8 1.7
v -2 0.8 1.6
v -1.9 0.8 1.6
v -1.8 0.8 1.6
v -1.7 0.8 1.6
v -1.6 0.8 1.6
v -1.5 0.8 1.6
v -1.9 0.8 1.5
v -1.8 0.8 1.5
v -1.7 0.8 1.5
v -1.6 0.8 1.5
v -1.7 0.3 1.8
v -1.6 0.3 1.8
v -1.7 0.3 1.7
v -1.6 0.3 1.7
v -1.6 0.4 1.8
v -1.5 0.4 1.8
v -1.6 0.4 1.7
v -1.5 0.4 1.7
v -1.8 0.5 1.9
v -1.7 0.5 1.9
v -1.8 0.5 1.8
v -1.7 0.5 1.8
v -1.8 0.6 2
v -1.7 0.6 2
v -1.8 0.6 1.9
v -1.7 0.6 1.9
v -1.9 0.9 2
v -1.8 0.9 2
v -1.7 0.9 2
v -1.6 0.9 2
v -2 0.9 1.9
v -1.9 0.9 1.9
v -1.8 0.9 1.9
v -1.7 0.9 1.9
v -1.6 0.9 1.9
v -1.5 0.9 1.9
v -2 0.9 1.8
v -1.9 0.9 1.8
v -1.8 0.9 1.8
v -1.7 0.9 1.8
v -1.6 0.9 1.8
v -1.5 0.9 1.8
v -2 0.9 1.7
v -1.9 0.9 1.7
v -1.8 0.9 1.7
v -1.7 0.9 1.7
v -1.6 0.9 1.7
v -1.5 0.9 1.7
v -2 0.9 1.6
v -1.9 0.9 1.6
v -1.8 0.9 1.6
v -1.7 0.9 1.6
v -1.6 0.9 1.6
v -1.5 0.9 1.6
v -1.9 0.9 1.5
v -1.8 0.9 1.5
v -1.7 0.9 1.5
v -1.6 0.9 1.5
v -1.9 1 1.9
v -1.8 1 1.9
v -1.7 1 1.9
v -1.6 1 1.9
v -1.9 1 1.8
v -1.8 1 1.8
v -1.7 1 1.8
v -1.6 1 1.8
v -1.9 1 1.7
v -1.8 1 1.7
v -1.7 1 1.7
v -1.6 1 1.7
v -1.9 1 1.6
v -1.8 1 1.6
v -1.7 1 1.6
v -1.6 1 1.6

# faces
f 5/2/1 2/2/1 1/2/1
f 6/5/1 3/5/1 2/5/1
f 6/2/1 2/2/1 5/2/1
f 7/3/1 4/3/1 3/3/1
f 7/5/1 3/5/1 6/5/1
f 8/3/1 4/3/1 7/3/1
f 14/3/1 10/3/1 9/3/1
f 15/2/1 11/2/1 10/2/1
f 15/3/1 10/3/1 14/3/1
f 16/3/1 12/3/1 11/3/1
f 16/2/1 11/2/1 15/2/1
f 17/3/1 12/3/1 16/3/1
f 19/3/1 14/3/1 13/3/1
f 20/3/1 14/3/1 19/3/1
f 23/2/1 18/2/1 17/2/1
f 24/2/1 18/2/1 23/2/1
f 25/4/1 21/4/1 20/4/1
f 26/2/1 22/2/1 21/2/1
f 26/4/1 21/4/1 25/4/1
f 27/4/1 23/4/1 22/4/1
f 27/2/1 22/2/1 26/2/1
f 28/4/1 23/4/1 27/4/1
f 32/1/1 30/1/1 29/1/1
f 34/7/1 32/7/1 31/7/1
f 35/1/1 30/1/1 32/1/1
f 35/7/1 32/7/1 34/7/1
f 36/7/1 34/7/1 33/7/1
f 37/7/1 34/7/1 36/7/1
f 38/1/1 30/1/1 35/1/1
f 39/1/1 30/1/1 38/1/1
f 40/6/1 39/6/1 38/6/1
f 41/6/1 39/6/1 40/6/1
f 44/2/1 43/2/1 42/2/1
f 45/2/1 43/2/1 44/2/1
f 48/7/1 47/7/1 46/7/1
f 49/7/1 47/7/1 48/7/1
f 50/2/2 51/2/2 52/2/2
f 52/2/2 51/2/2 53/2/2
f 54/1/2 55/1/2 56/1/2
f 56/1/2 55/1/2 57/1/2
f 58/1/2 59/1/2 61/1/2
f 60/7/2 61/7/2 63/7/2
f 61/1/2 59/1/2 64/1/2
f 63/7/2 61/7/2 64/7/2
f 62/7/2 63/7/2 65/7/2
f 65/7/2 63/7/2 66/7/2
f 64/1/2 59/1/2 67/1/2
f 67/1/2 59/1/2 68/1/2
f 67/6/2 68/6/2 69/6/2
f 69/6/2 68/6/2 70/6/2
f 71/7/2 72/7/2 73/7/2
f 73/7/2 72/7/2 74/7/2
f 75/3/2 76/3/2 80/3/2
f 76/2/2 77/2/2 81/2/2
f 80/3/2 76/3/2 81/3/2
f 77/3/2 78/3/2 82/3/2
f 81/2/2 77/2/2 82/2/2
f 82/3/2 78/3/2 83/3/2
f 79/2/2 80/2/2 85/2/2
f 85/2/2 80/2/2 86/2/2
f 83/3/2 84/3/2 89/3/2
f 89/3/2 84/3/2 90/3/2
f 86/4/2 87/4/2 91/4/2
f 87/2/2 88/2/2 92/2/2
f 91/4/2 87/4/2 92/4/2
f 88/4/2 89/4/2 93/4/2
f 92/2/2 88/2/2 93/2/2
f 93/4/2 89/4/2 94/4/2
f 95/7/2 96/7/2 97/7/2
f 97/7/2 96/7/2 98/7/2
f 99/3/2 100/3/2 103/3/2
f 100/5/2 101/5/2 104/5/2
f 103/3/2 100/3/2 104/3/2
f 101/2/2 102/2/2 105/2/2
f 104/5/2 101/5/2 105/5/2
f 105/2/2 102/2/2 106/2/2
f 111/3/3 108/3/3 107/3/3
f 112/3/3 108/3/3 111/3/3
f 113/7/3 110/7/3 109/7/3
f 114/7/3 110/7/3 113/7/3
f 115/5/3 112/5/3 111/5/3
f 116/5/3 112/5/3 115/5/3
f 117/2/3 116/2/3 115/2/3
f 118/2/3 116/2/3 117/2/3
f 122/2/3 120/2/3 119/2/3
f 123/2/3 120/2/3 122/2/3
f 127/3/3 122/3/3 121/3/3
f 128/3/3 122/3/3 127/3/3
f 129/4/3 124/4/3 123/4/3
f 130/4/3 124/4/3 129/4/3
f 131/7/3 126/7/3 125/7/3
f 132/7/3 126/7/3 131/7/3
f 133/2/3 128/2/3 127/2/3
f 134/2/3 128/2/3 133/2/3
f 135/2/3 130/2/3 129/2/3
f 136/2/3 130/2/3 135/2/3
f 137/3/3 134/3/3 133/3/3
f 138/3/3 134/3/3 137/3/3
f 139/4/3 136/4/3 135/4/3
f 140/4/3 136/4/3 139/4/3
f 141/3/3 139/3/3 138/3/3
f 142/3/3 139/3/3 141/3/3
f 148/1/3 144/1/3 143/1/3
f 149/1/3 144/1/3 148/1/3
f 150/1/3 144/1/3 149/1/3
f 151/1/3 144/1/3 150/1/3
f 152/1/3 146/1/3 145/1/3
f 153/6/3 147/6/3 146/6/3
f 153/1/3 146/1/3 152/1/3
f 154/6/3 147/6/3 153/6/3
f 155/7/3 150/7/3 149/7/3
f 156/7/3 150/7/3 155/7/3
f 158/7/3 157/7/3 156/7/3
f 159/7/3 157/7/3 158/7/3
f 162/2/3 161/2/3 160/2/3
f 163/2/3 161/2/3 162/2/3
f 164/7/4 165/7/4 166/7/4
f 166/7/4 165/7/4 167/7/4
f 168/2/4 169/2/4 170/2/4
f 170/2/4 169/2/4 171/2/4
f 172/1/4 173/1/4 175/1/4
f 175/1/4 173/1/4 176/1/4
f 176/1/4 173/1/4 177/1/4
f 173/6/4 174/6/4 178/6/4
f 177/1/4 173/1/4 178/1/4
f 178/6/4 174/6/4 179/6/4
f 176/7/4 177/7/4 180/7/4
f 180/7/4 177/7/4 181/7/4
f 181/7/4 182/7/4 183/7/4
f 183/7/4 182/7/4 184/7/4
f 185/3/4 186/3/4 188/3/4
f 188/3/4 186/3/4 189/3/4
f 187/3/4 188/3/4 191/3/4
f 191/3/4 188/3/4 192/3/4
f 189/4/4 190/4/4 193/4/4
f 193/4/4 190/4/4 194/4/4
f 191/2/4 192/2/4 195/2/4
f 195/2/4 192/2/4 196/2/4
f 193/2/4 194/2/4 197/2/4
f 197/2/4 194/2/4 198/2/4
f 195/3/4 196/3/4 199/3/4
f 199/3/4 196/3/4 200/3/4
f 197/4/4 198/4/4 201/4/4
f 201/4/4 198/4/4 202/4/4
f 200/2/4 201/2/4 203/2/4
f 203/2/4 201/2/4 204/2/4
f 205/2/4 206/2/4 207/2/4
f 207/2/4 206/2/4 208/2/4
f 207/5/4 208/5/4 209/5/4
f 209/5/4 208/5/4 210/5/4
f 209/3/4 210/3/4 211/3/4
f 211/3/4 210/3/4 212/3/4
f 215/1/5 214/1/5 213/1/5
f 216/1/5 214/1/5 215/1/5
f 219/7/5 218/7/5 217/7/5
f 220/7/5 218/7/5 219/7/5
f 223/7/5 222/7/5 221/7/5
f 224/7/5 222/7/5 223/7/5
f 227/7/5 226/7/5 225/7/5
f 228/7/5 226/7/5 227/7/5
f 231/7/5 230/7/5 229/7/5
f 232/7/5 230/7/5 231/7/5
f 237/3/5 234/3/5 233/3/5
f 238/2/5 235/2/5 234/2/5
f 238/3/5 234/3/5 237/3/5
f 239/3/5 236/3/5 235/3/5
f 239/2/5 235/2/5 238/2/5
f 240/3/5 236/3/5 239/3/5
f 241/2/5 238/2/5 237/2/5
f 242/2/5 238/2/5 241/2/5
f 243/2/5 240/2/5 239/2/5
f 244/2/5 240/2/5 243/2/5
f 245/3/5 242/3/5 241/3/5
f 246/2/5 243/2/5 242/2/5
f 246/3/5 242/3/5 245/3/5
f 247/3/5 244/3/5 243/3/5
f 247/2/5 243/2/5 246/2/5
f 248/3/5 244/3/5 247/3/5
f 254/3/5 250/3/5 249/3/5
f 255/5/5 251/5/5 250/5/5
f 255/3/5 250/3/5 254/3/5
f 256/2/5 252/2/5 251/2/5
f 256/5/5 251/5/5 255/5/5
f 257/2/5 252/2/5 256/2/5
f 259/2/5 254/2/5 253/2/5
f 260/2/5 254/2/5 259/2/5
f 261/3/5 258/3/5 257/3/5
f 262/3/5 258/3/5 261/3/5
f 263/5/5 260/5/5 259/5/5
f 264/5/5 260/5/5 263/5/5
f 265/5/5 262/5/5 261/5/5
f 266/5/5 262/5/5 265/5/5
f 267/3/5 264/3/5 263/3/5
f 268/3/5 264/3/5 267/3/5
f 271/2/5 266/2/5 265/2/5
f 272/2/5 266/2/5 271/2/5
f 273/2/5 269/2/5 268/2/5
f 274/5/5 270/5/5 269/5/5
f 274/2/5 269/2/5 273/2/5
f 275/3/5 271/3/5 270/3/5
f 275/5/5 270/5/5 274/5/5
f 276/3/5 271/3/5 275/3/5
f 277/7/6 278/7/6 279/7/6
f 279/7/6 278/7/6 280/7/6
f 281/7/6 282/7/6 283/7/6
f 283/7/6 282/7/6 284/7/6
f 285/7/6 286/7/6 287/7/6
f 287/7/6 286/7/6 288/7/6
f 289/7/6 290/7/6 291/7/6
f 291/7/6 290/7/6 292/7/6
f 293/3/6 294/3/6 298/3/6
f 294/5/6 295/5/6 299/5/6
f 298/3/6 294/3/6 299/3/6
f 295/2/6 296/2/6 300/2/6
f 299/5/6 295/5/6 300/5/6
f 300/2/6 296/2/6 301/2/6
f 297/2/6 298/2/6 303/2/6
f 303/2/6 298/2/6 304/2/6
f 301/3/6 302/3/6 307/3/6
f 307/3/6 302/3/6 308/3/6
f 303/5/6 304/5/6 309/5/6
f 309/5/6 304/5/6 310/5/6
f 305/4/6 306/4/6 311/4/6
f 311/4/6 306/4/6 312/4/6
f 307/5/6 308/5/6 313/5/6
f 313/5/6 308/5/6 314/5/6
f 309/3/6 310/3/6 315/3/6
f 315/3/6 310/3/6 316/3/6
f 313/2/6 314/2/6 319/2/6
f 319/2/6 314/2/6 320/2/6
f 316/2/6 317/2/6 321/2/6
f 317/5/6 318/5/6 322/5/6
f 321/2/6 317/2/6 322/2/6
f 318/3/6 319/3/6 323/3/6
f 322/5/6 318/5/6 323/5/6
f 323/3/6 319/3/6 324/3/6
f 325/4/6 326/4/6 329/4/6
f 326/2/6 327/2/6 330/2/6
f 329/4/6 326/4/6 330/4/6
f 327/4/6 328/4/6 331/4/6
f 330/2/6 327/2/6 331/2/6
f 331/4/6 328/4/6 332/4/6
f 329/2/6 330/2/6 333/2/6
f 333/2/6 330/2/6 334/2/6
f 331/2/6 332/2/6 335/2/6
f 335/2/6 332/2/6 336/2/6
f 333/4/6 334/4/6 337/4/6
f 334/2/6 335/2/6 338/2/6
f 337/4/6 334/4/6 338/4/6
f 335/4/6 336/4/6 339/4/6
f 338/2/6 335/2/6 339/2/6
f 339/4/6 336/4/6 340/4/6
