# MagicaVoxel @ Ephtracy

# group
o 

# material
mtllib Leg.mtl
usemtl palette

# normals
vn -1 0 0
vn 1 0 0
vn 0 0 1
vn 0 0 -1
vn 0 -1 0
vn 0 1 0

# texcoords
vt 0.0175781 0.5
vt 0.716797 0.5
vt 0.986328 0.5
vt 0.994141 0.5

# verts
v 0.1 2.1 -0.3
v 0.1 2.1 -0.6
v 0.1 2.2 -0.3
v 0.1 2.2 -0.4
v 0.1 2.3 -0.3
v 0.1 2.3 -0.4
v 0.1 2.3 -0.6
v 0.2 2 -0.1
v 0.2 2 -0.6
v 0.2 2.1 -0.1
v 0.2 2.1 -0.2
v 0.2 2.1 -0.3
v 0.2 2.1 -0.6
v 0.2 2.1 -0.7
v 0.2 2.2 -0.3
v 0.2 2.2 -0.6
v 0.2 2.2 -0.7
v 0.2 2.3 -0.2
v 0.2 2.3 -0.3
v 0.2 2.3 -0.4
v 0.2 2.3 -0.6
v 0.2 2.3 -0.7
v 0.2 2.5 -0.3
v 0.2 2.5 -0.4
v 0.2 2.6 -0.3
v 0.2 2.6 -0.4
v 0.2 2.6 -0.5
v 0.2 2.6 -0.6
v 0.2 2.9 -0.4
v 0.2 2.9 -0.5
v 0.2 3.1 -0.2
v 0.2 3.1 -0.7
v 0.2 3.2 -0.2
v 0.2 3.2 -0.7
v 0.3 2 0
v 0.3 2 -0.1
v 0.3 2 -0.6
v 0.3 2 -0.7
v 0.3 2.1 0
v 0.3 2.1 -0.1
v 0.3 2.1 -0.6
v 0.3 2.1 -0.7
v 0.3 2.6 -0.3
v 0.3 2.6 -0.4
v 0.3 2.6 -0.5
v 0.3 2.6 -0.6
v 0.3 2.8 -0.3
v 0.3 2.8 -0.4
v 0.3 2.9 -0.3
v 0.3 2.9 -0.4
v 0.3 2.9 -0.5
v 0.3 3 -0.5
v 0.3 3 -0.6
v 0.3 3.1 -0.3
v 0.3 3.1 -0.5
v 0.3 3.1 -0.6
v 0.4 3.1 -0.2
v 0.4 3.1 -0.3
v 0.4 3.1 -0.6
v 0.4 3.1 -0.7
v 0.4 3.2 -0.2
v 0.4 3.2 -0.3
v 0.4 3.2 -0.6
v 0.4 3.2 -0.7
v 0.3 3.1 -0.2
v 0.3 3.1 -0.3
v 0.3 3.1 -0.6
v 0.3 3.1 -0.7
v 0.3 3.2 -0.2
v 0.3 3.2 -0.3
v 0.3 3.2 -0.6
v 0.3 3.2 -0.7
v 0.4 2 0
v 0.4 2 -0.1
v 0.4 2 -0.6
v 0.4 2 -0.7
v 0.4 2.1 0
v 0.4 2.1 -0.1
v 0.4 2.1 -0.6
v 0.4 2.1 -0.7
v 0.4 2.6 -0.3
v 0.4 2.6 -0.4
v 0.4 2.6 -0.5
v 0.4 2.6 -0.6
v 0.4 2.8 -0.3
v 0.4 2.8 -0.4
v 0.4 2.9 -0.3
v 0.4 2.9 -0.4
v 0.4 2.9 -0.5
v 0.4 3 -0.5
v 0.4 3 -0.6
v 0.4 3.1 -0.3
v 0.4 3.1 -0.5
v 0.4 3.1 -0.6
v 0.5 2 -0.1
v 0.5 2 -0.6
v 0.5 2.1 -0.1
v 0.5 2.1 -0.2
v 0.5 2.1 -0.3
v 0.5 2.1 -0.5
v 0.5 2.1 -0.6
v 0.5 2.1 -0.7
v 0.5 2.2 -0.3
v 0.5 2.2 -0.6
v 0.5 2.2 -0.7
v 0.5 2.3 -0.2
v 0.5 2.3 -0.3
v 0.5 2.3 -0.4
v 0.5 2.3 -0.6
v 0.5 2.3 -0.7
v 0.5 2.4 -0.5
v 0.5 2.4 -0.6
v 0.5 2.5 -0.5
v 0.5 2.5 -0.6
v 0.5 2.6 -0.3
v 0.5 2.6 -0.4
v 0.5 2.6 -0.5
v 0.5 2.6 -0.6
v 0.5 2.9 -0.4
v 0.5 2.9 -0.5
v 0.5 3.1 -0.2
v 0.5 3.1 -0.7
v 0.5 3.2 -0.2
v 0.5 3.2 -0.7
v 0.6 2.1 -0.3
v 0.6 2.1 -0.5
v 0.6 2.1 -0.6
v 0.6 2.2 -0.3
v 0.6 2.2 -0.4
v 0.6 2.2 -0.5
v 0.6 2.2 -0.6
v 0.6 2.3 -0.3
v 0.6 2.3 -0.4
v 0.6 2.3 -0.6
v 0.3 2 0
v 0.3 2.1 0
v 0.4 2 0
v 0.4 2.1 0
v 0.2 2 -0.1
v 0.2 2.1 -0.1
v 0.3 2 -0.1
v 0.3 2.1 -0.1
v 0.4 2 -0.1
v 0.4 2.1 -0.1
v 0.5 2 -0.1
v 0.5 2.1 -0.1
v 0.2 2.1 -0.2
v 0.2 2.3 -0.2
v 0.2 3.1 -0.2
v 0.2 3.2 -0.2
v 0.3 3.1 -0.2
v 0.3 3.2 -0.2
v 0.4 3.1 -0.2
v 0.4 3.2 -0.2
v 0.5 2.1 -0.2
v 0.5 2.3 -0.2
v 0.5 3.1 -0.2
v 0.5 3.2 -0.2
v 0.1 2.1 -0.3
v 0.1 2.2 -0.3
v 0.1 2.3 -0.3
v 0.2 2.1 -0.3
v 0.2 2.2 -0.3
v 0.2 2.3 -0.3
v 0.2 2.5 -0.3
v 0.2 2.6 -0.3
v 0.3 2.5 -0.3
v 0.3 2.6 -0.3
v 0.3 2.8 -0.3
v 0.3 2.9 -0.3
v 0.3 3.1 -0.3
v 0.3 3.2 -0.3
v 0.4 2.6 -0.3
v 0.4 2.8 -0.3
v 0.4 2.9 -0.3
v 0.4 3.1 -0.3
v 0.4 3.2 -0.3
v 0.5 2.1 -0.3
v 0.5 2.2 -0.3
v 0.5 2.3 -0.3
v 0.5 2.6 -0.3
v 0.6 2.1 -0.3
v 0.6 2.2 -0.3
v 0.6 2.3 -0.3
v 0.2 2.6 -0.4
v 0.2 2.9 -0.4
v 0.3 2.6 -0.4
v 0.3 2.8 -0.4
v 0.3 2.9 -0.4
v 0.4 2.6 -0.4
v 0.4 2.8 -0.4
v 0.4 2.9 -0.4
v 0.5 2.6 -0.4
v 0.5 2.9 -0.4
v 0.2 2.6 -0.5
v 0.2 2.9 -0.5
v 0.3 2.6 -0.5
v 0.3 2.9 -0.5
v 0.4 2.6 -0.5
v 0.4 2.9 -0.5
v 0.5 2.6 -0.5
v 0.5 2.9 -0.5
v 0.1 2.1 -0.6
v 0.1 2.3 -0.6
v 0.2 2 -0.6
v 0.2 2.1 -0.6
v 0.2 2.2 -0.6
v 0.2 2.3 -0.6
v 0.2 2.6 -0.6
v 0.3 2 -0.6
v 0.3 2.1 -0.6
v 0.3 2.6 -0.6
v 0.3 3 -0.6
v 0.3 3.1 -0.6
v 0.3 3.2 -0.6
v 0.4 2 -0.6
v 0.4 2.1 -0.6
v 0.4 2.3 -0.6
v 0.4 2.4 -0.6
v 0.4 2.5 -0.6
v 0.4 2.6 -0.6
v 0.4 3 -0.6
v 0.4 3.1 -0.6
v 0.4 3.2 -0.6
v 0.5 2 -0.6
v 0.5 2.1 -0.6
v 0.5 2.2 -0.6
v 0.5 2.3 -0.6
v 0.5 2.4 -0.6
v 0.5 2.5 -0.6
v 0.5 2.6 -0.6
v 0.6 2.1 -0.6
v 0.6 2.2 -0.6
v 0.6 2.3 -0.6
v 0.2 2.1 -0.7
v 0.2 2.2 -0.7
v 0.2 2.3 -0.7
v 0.2 3.1 -0.7
v 0.2 3.2 -0.7
v 0.3 2 -0.7
v 0.3 2.1 -0.7
v 0.3 2.2 -0.7
v 0.3 3.1 -0.7
v 0.3 3.2 -0.7
v 0.4 2 -0.7
v 0.4 2.1 -0.7
v 0.4 2.2 -0.7
v 0.4 2.3 -0.7
v 0.4 3.1 -0.7
v 0.4 3.2 -0.7
v 0.5 2.1 -0.7
v 0.5 2.2 -0.7
v 0.5 2.3 -0.7
v 0.5 3.1 -0.7
v 0.5 3.2 -0.7
v 0.3 2 0
v 0.4 2 0
v 0.2 2 -0.1
v 0.3 2 -0.1
v 0.4 2 -0.1
v 0.5 2 -0.1
v 0.2 2 -0.6
v 0.3 2 -0.6
v 0.4 2 -0.6
v 0.5 2 -0.6
v 0.3 2 -0.7
v 0.4 2 -0.7
v 0.1 2.1 -0.3
v 0.2 2.1 -0.3
v 0.5 2.1 -0.3
v 0.6 2.1 -0.3
v 0.5 2.1 -0.5
v 0.6 2.1 -0.5
v 0.1 2.1 -0.6
v 0.2 2.1 -0.6
v 0.3 2.1 -0.6
v 0.4 2.1 -0.6
v 0.5 2.1 -0.6
v 0.6 2.1 -0.6
v 0.2 2.1 -0.7
v 0.3 2.1 -0.7
v 0.4 2.1 -0.7
v 0.5 2.1 -0.7
v 0.2 3.1 -0.2
v 0.3 3.1 -0.2
v 0.4 3.1 -0.2
v 0.5 3.1 -0.2
v 0.3 3.1 -0.3
v 0.4 3.1 -0.3
v 0.3 3.1 -0.5
v 0.4 3.1 -0.5
v 0.3 3.1 -0.6
v 0.4 3.1 -0.6
v 0.2 3.1 -0.7
v 0.3 3.1 -0.7
v 0.4 3.1 -0.7
v 0.5 3.1 -0.7
v 0.3 2.1 0
v 0.4 2.1 0
v 0.2 2.1 -0.1
v 0.3 2.1 -0.1
v 0.4 2.1 -0.1
v 0.5 2.1 -0.1
v 0.2 2.1 -0.2
v 0.5 2.1 -0.2
v 0.2 2.3 -0.2
v 0.5 2.3 -0.2
v 0.1 2.3 -0.3
v 0.2 2.3 -0.3
v 0.5 2.3 -0.3
v 0.6 2.3 -0.3
v 0.1 2.3 -0.4
v 0.2 2.3 -0.4
v 0.5 2.3 -0.4
v 0.6 2.3 -0.4
v 0.1 2.3 -0.6
v 0.2 2.3 -0.6
v 0.4 2.3 -0.6
v 0.5 2.3 -0.6
v 0.6 2.3 -0.6
v 0.2 2.3 -0.7
v 0.4 2.3 -0.7
v 0.5 2.3 -0.7
v 0.2 2.6 -0.3
v 0.3 2.6 -0.3
v 0.4 2.6 -0.3
v 0.5 2.6 -0.3
v 0.2 2.6 -0.4
v 0.3 2.6 -0.4
v 0.4 2.6 -0.4
v 0.5 2.6 -0.4
v 0.2 2.6 -0.5
v 0.3 2.6 -0.5
v 0.4 2.6 -0.5
v 0.5 2.6 -0.5
v 0.2 2.6 -0.6
v 0.3 2.6 -0.6
v 0.4 2.6 -0.6
v 0.5 2.6 -0.6
v 0.2 2.9 -0.4
v 0.3 2.9 -0.4
v 0.4 2.9 -0.4
v 0.5 2.9 -0.4
v 0.2 2.9 -0.5
v 0.3 2.9 -0.5
v 0.4 2.9 -0.5
v 0.5 2.9 -0.5
v 0.2 3.2 -0.2
v 0.3 3.2 -0.2
v 0.4 3.2 -0.2
v 0.5 3.2 -0.2
v 0.3 3.2 -0.3
v 0.4 3.2 -0.3
v 0.3 3.2 -0.6
v 0.4 3.2 -0.6
v 0.2 3.2 -0.7
v 0.3 3.2 -0.7
v 0.4 3.2 -0.7
v 0.5 3.2 -0.7

# faces
f 3/1/1 2/1/1 1/1/1
f 4/1/1 2/1/1 3/1/1
f 5/2/1 4/2/1 3/2/1
f 6/1/1 2/1/1 4/1/1
f 6/2/1 4/2/1 5/2/1
f 7/1/1 2/1/1 6/1/1
f 10/4/1 9/4/1 8/4/1
f 11/4/1 9/4/1 10/4/1
f 12/4/1 9/4/1 11/4/1
f 13/4/1 9/4/1 12/4/1
f 15/1/1 12/1/1 11/1/1
f 16/2/1 14/2/1 13/2/1
f 17/2/1 14/2/1 16/2/1
f 18/1/1 15/1/1 11/1/1
f 19/1/1 15/1/1 18/1/1
f 21/1/1 17/1/1 16/1/1
f 22/1/1 17/1/1 21/1/1
f 23/1/1 20/1/1 19/1/1
f 23/1/1 21/1/1 20/1/1
f 24/1/1 21/1/1 23/1/1
f 25/2/1 24/2/1 23/2/1
f 26/1/1 21/1/1 24/1/1
f 26/2/1 24/2/1 25/2/1
f 27/1/1 21/1/1 26/1/1
f 28/1/1 21/1/1 27/1/1
f 29/1/1 27/1/1 26/1/1
f 30/1/1 27/1/1 29/1/1
f 33/1/1 32/1/1 31/1/1
f 34/1/1 32/1/1 33/1/1
f 39/3/1 36/3/1 35/3/1
f 40/3/1 36/3/1 39/3/1
f 41/4/1 38/4/1 37/4/1
f 42/4/1 38/4/1 41/4/1
f 47/1/1 44/1/1 43/1/1
f 48/1/1 44/1/1 47/1/1
f 49/2/1 48/2/1 47/2/1
f 50/2/1 48/2/1 49/2/1
f 51/1/1 46/1/1 45/1/1
f 52/1/1 50/1/1 49/1/1
f 52/1/1 51/1/1 50/1/1
f 52/1/1 46/1/1 51/1/1
f 53/1/1 46/1/1 52/1/1
f 54/1/1 52/1/1 49/1/1
f 55/2/1 53/2/1 52/2/1
f 55/1/1 52/1/1 54/1/1
f 56/2/1 53/2/1 55/2/1
f 61/1/1 58/1/1 57/1/1
f 62/1/1 58/1/1 61/1/1
f 63/1/1 60/1/1 59/1/1
f 64/1/1 60/1/1 63/1/1
f 65/1/2 66/1/2 69/1/2
f 69/1/2 66/1/2 70/1/2
f 67/1/2 68/1/2 71/1/2
f 71/1/2 68/1/2 72/1/2
f 73/3/2 74/3/2 77/3/2
f 77/3/2 74/3/2 78/3/2
f 75/4/2 76/4/2 79/4/2
f 79/4/2 76/4/2 80/4/2
f 81/1/2 82/1/2 85/1/2
f 85/1/2 82/1/2 86/1/2
f 85/2/2 86/2/2 87/2/2
f 87/2/2 86/2/2 88/2/2
f 83/1/2 84/1/2 89/1/2
f 87/1/2 88/1/2 90/1/2
f 88/1/2 89/1/2 90/1/2
f 89/1/2 84/1/2 90/1/2
f 90/1/2 84/1/2 91/1/2
f 87/1/2 90/1/2 92/1/2
f 90/2/2 91/2/2 93/2/2
f 92/1/2 90/1/2 93/1/2
f 93/2/2 91/2/2 94/2/2
f 95/4/2 96/4/2 97/4/2
f 97/4/2 96/4/2 98/4/2
f 98/4/2 96/4/2 99/4/2
f 99/4/2 96/4/2 100/4/2
f 100/4/2 96/4/2 101/4/2
f 98/1/2 99/1/2 103/1/2
f 101/1/2 102/1/2 104/1/2
f 104/1/2 102/1/2 105/1/2
f 98/1/2 103/1/2 106/1/2
f 106/1/2 103/1/2 107/1/2
f 104/2/2 105/2/2 109/2/2
f 109/2/2 105/2/2 110/2/2
f 107/1/2 108/1/2 111/1/2
f 108/1/2 109/1/2 111/1/2
f 111/1/2 109/1/2 112/1/2
f 107/1/2 111/1/2 113/1/2
f 111/2/2 112/2/2 113/2/2
f 113/2/2 112/2/2 114/2/2
f 107/1/2 113/1/2 115/1/2
f 113/1/2 114/1/2 115/1/2
f 115/1/2 114/1/2 116/1/2
f 116/1/2 114/1/2 117/1/2
f 117/1/2 114/1/2 118/1/2
f 116/1/2 117/1/2 119/1/2
f 119/1/2 117/1/2 120/1/2
f 121/1/2 122/1/2 123/1/2
f 123/1/2 122/1/2 124/1/2
f 125/1/2 126/1/2 128/1/2
f 128/1/2 126/1/2 129/1/2
f 126/2/2 127/2/2 130/2/2
f 129/1/2 126/1/2 130/1/2
f 130/2/2 127/2/2 131/2/2
f 128/2/2 129/2/2 132/2/2
f 129/1/2 130/1/2 133/1/2
f 132/2/2 129/2/2 133/2/2
f 130/1/2 131/1/2 133/1/2
f 133/1/2 131/1/2 134/1/2
f 137/3/3 136/3/3 135/3/3
f 138/3/3 136/3/3 137/3/3
f 141/4/3 140/4/3 139/4/3
f 142/4/3 140/4/3 141/4/3
f 145/4/3 144/4/3 143/4/3
f 146/4/3 144/4/3 145/4/3
f 151/1/3 150/1/3 149/1/3
f 152/1/3 150/1/3 151/1/3
f 155/1/3 148/1/3 147/1/3
f 156/1/3 148/1/3 155/1/3
f 157/1/3 154/1/3 153/1/3
f 158/1/3 154/1/3 157/1/3
f 162/1/3 160/1/3 159/1/3
f 163/2/3 161/2/3 160/2/3
f 163/1/3 160/1/3 162/1/3
f 164/2/3 161/2/3 163/2/3
f 167/2/3 166/2/3 165/2/3
f 167/1/3 165/1/3 164/1/3
f 168/2/3 166/2/3 167/2/3
f 173/1/3 168/1/3 167/1/3
f 173/1/3 169/1/3 168/1/3
f 174/2/3 170/2/3 169/2/3
f 174/1/3 169/1/3 173/1/3
f 175/1/3 172/1/3 171/1/3
f 175/2/3 170/2/3 174/2/3
f 175/1/3 171/1/3 170/1/3
f 176/1/3 172/1/3 175/1/3
f 177/1/3 172/1/3 176/1/3
f 180/1/3 167/1/3 164/1/3
f 180/1/3 173/1/3 167/1/3
f 181/1/3 173/1/3 180/1/3
f 182/1/3 179/1/3 178/1/3
f 183/2/3 180/2/3 179/2/3
f 183/1/3 179/1/3 182/1/3
f 184/2/3 180/2/3 183/2/3
f 187/1/3 186/1/3 185/1/3
f 188/1/3 186/1/3 187/1/3
f 189/1/3 186/1/3 188/1/3
f 193/1/3 191/1/3 190/1/3
f 193/1/3 192/1/3 191/1/3
f 194/1/3 192/1/3 193/1/3
f 195/1/4 196/1/4 197/1/4
f 197/1/4 196/1/4 198/1/4
f 199/1/4 200/1/4 201/1/4
f 201/1/4 200/1/4 202/1/4
f 203/1/4 204/1/4 206/1/4
f 206/1/4 204/1/4 207/1/4
f 207/1/4 204/1/4 208/1/4
f 205/4/4 206/4/4 210/4/4
f 210/4/4 206/4/4 211/4/4
f 208/1/4 209/1/4 212/1/4
f 208/1/4 212/1/4 218/1/4
f 212/1/4 213/1/4 218/1/4
f 218/1/4 213/1/4 219/1/4
f 219/1/4 213/1/4 220/1/4
f 220/1/4 213/1/4 221/1/4
f 213/2/4 214/2/4 222/2/4
f 221/1/4 213/1/4 222/1/4
f 214/1/4 215/1/4 223/1/4
f 222/2/4 214/2/4 223/2/4
f 223/1/4 215/1/4 224/1/4
f 216/4/4 217/4/4 225/4/4
f 225/4/4 217/4/4 226/4/4
f 218/1/4 219/1/4 228/1/4
f 219/2/4 220/2/4 229/2/4
f 228/1/4 219/1/4 229/1/4
f 220/1/4 221/1/4 230/1/4
f 229/2/4 220/2/4 230/2/4
f 230/1/4 221/1/4 231/1/4
f 226/2/4 227/2/4 232/2/4
f 227/1/4 228/1/4 233/1/4
f 232/2/4 227/2/4 233/2/4
f 233/1/4 228/1/4 234/1/4
f 235/2/4 236/2/4 241/2/4
f 236/1/4 237/1/4 242/1/4
f 241/2/4 236/2/4 242/2/4
f 238/1/4 239/1/4 243/1/4
f 243/1/4 239/1/4 244/1/4
f 240/4/4 241/4/4 245/4/4
f 241/1/4 242/1/4 246/1/4
f 245/4/4 241/4/4 246/4/4
f 242/1/4 237/1/4 247/1/4
f 246/1/4 242/1/4 247/1/4
f 247/1/4 237/1/4 248/1/4
f 246/1/4 247/1/4 251/1/4
f 247/2/4 248/2/4 252/2/4
f 251/1/4 247/1/4 252/1/4
f 252/2/4 248/2/4 253/2/4
f 249/1/4 250/1/4 254/1/4
f 254/1/4 250/1/4 255/1/4
f 259/3/5 257/3/5 256/3/5
f 260/3/5 257/3/5 259/3/5
f 262/4/5 259/4/5 258/4/5
f 262/4/5 261/4/5 260/4/5
f 262/4/5 260/4/5 259/4/5
f 263/4/5 261/4/5 262/4/5
f 264/4/5 261/4/5 263/4/5
f 265/4/5 261/4/5 264/4/5
f 266/4/5 264/4/5 263/4/5
f 267/4/5 264/4/5 266/4/5
f 272/1/5 271/1/5 270/1/5
f 273/1/5 271/1/5 272/1/5
f 274/1/5 269/1/5 268/1/5
f 275/1/5 269/1/5 274/1/5
f 278/2/5 273/2/5 272/2/5
f 279/2/5 273/2/5 278/2/5
f 280/2/5 276/2/5 275/2/5
f 281/2/5 276/2/5 280/2/5
f 282/1/5 278/1/5 277/1/5
f 283/1/5 278/1/5 282/1/5
f 288/1/5 285/1/5 284/1/5
f 289/1/5 287/1/5 286/1/5
f 290/1/5 288/1/5 284/1/5
f 291/1/5 287/1/5 289/1/5
f 292/1/5 290/1/5 284/1/5
f 293/1/5 287/1/5 291/1/5
f 294/1/5 292/1/5 284/1/5
f 295/1/5 292/1/5 294/1/5
f 296/1/5 287/1/5 293/1/5
f 297/1/5 287/1/5 296/1/5
f 298/3/6 299/3/6 301/3/6
f 301/3/6 299/3/6 302/3/6
f 300/4/6 301/4/6 304/4/6
f 302/4/6 303/4/6 304/4/6
f 301/4/6 302/4/6 304/4/6
f 304/4/6 303/4/6 305/4/6
f 306/1/6 307/1/6 309/1/6
f 309/1/6 307/1/6 310/1/6
f 308/2/6 309/2/6 312/2/6
f 312/2/6 309/2/6 313/2/6
f 310/2/6 311/2/6 314/2/6
f 314/2/6 311/2/6 315/2/6
f 312/1/6 313/1/6 316/1/6
f 316/1/6 313/1/6 317/1/6
f 314/1/6 315/1/6 319/1/6
f 319/1/6 315/1/6 320/1/6
f 317/1/6 318/1/6 321/1/6
f 318/2/6 319/2/6 322/2/6
f 321/1/6 318/1/6 322/1/6
f 322/2/6 319/2/6 323/2/6
f 324/2/6 325/2/6 328/2/6
f 328/2/6 325/2/6 329/2/6
f 326/1/6 327/1/6 330/1/6
f 330/1/6 327/1/6 331/1/6
f 332/1/6 333/1/6 336/1/6
f 336/1/6 333/1/6 337/1/6
f 334/1/6 335/1/6 338/1/6
f 338/1/6 335/1/6 339/1/6
f 340/1/6 341/1/6 344/1/6
f 344/1/6 341/1/6 345/1/6
f 342/1/6 343/1/6 346/1/6
f 346/1/6 343/1/6 347/1/6
f 348/1/6 349/1/6 352/1/6
f 350/1/6 351/1/6 353/1/6
f 348/1/6 352/1/6 354/1/6
f 352/1/6 353/1/6 354/1/6
f 353/1/6 351/1/6 355/1/6
f 354/1/6 353/1/6 355/1/6
f 348/1/6 354/1/6 356/1/6
f 356/1/6 354/1/6 357/1/6
f 355/1/6 351/1/6 358/1/6
f 358/1/6 351/1/6 359/1/6
